<svg width="48" height="48" viewBox="0 0 48 48" fill="none" xmlns="http://www.w3.org/2000/svg">
<path d="M41.176 24.088C41.176 14.6506 33.5254 7 24.088 7C14.6506 7 7 14.6506 7 24.088C7 33.5254 14.6506 41.176 24.088 41.176C33.5254 41.176 41.176 33.5254 41.176 24.088Z" fill="#F54900"/>
<path fill-rule="evenodd" clip-rule="evenodd" d="M24.0001 48C30.967 47.9386 37.9334 46.4812 42.148 42.1478C46.4812 37.9334 47.9387 30.9668 48 24C47.9387 17.0334 46.4812 10.0666 42.148 5.85212C37.9334 1.51883 30.967 0.0614604 24.0001 0C17.0332 0.0614604 10.0666 1.51883 5.85214 5.85212C1.51883 10.0666 0.0614606 17.0334 0 24C0.0614606 30.9668 1.51883 37.9334 5.85214 42.1478C10.0666 46.4812 17.0334 47.9386 24.0001 48ZM23.2276 12C22.8559 18.0304 18.0305 22.8558 12 23.2274V24.7734C18.0302 25.145 22.8555 29.97 23.2276 36H24.7738C25.1457 29.9704 29.9705 25.1456 36.0001 24.7736V23.2274C29.9701 22.8552 25.1453 18.03 24.7736 12H23.2276Z" fill="#F54900"/>
<mask id="mask0_311_21" style="mask-type:luminance" maskUnits="userSpaceOnUse" x="14" y="14" width="20" height="20">
<path d="M34 14H14V34H34V14Z" fill="white"/>
</mask>
<g mask="url(#mask0_311_21)">
<path d="M21.8995 17.6022C21.8995 15.6128 23.5122 14 25.5016 14C25.8836 14 26.1933 14.3096 26.1933 14.6916V30.3979C26.1933 32.3873 24.5805 34 22.5911 34C22.2091 34 21.8995 33.6904 21.8995 33.3084V17.6022Z" fill="white"/>
<path d="M28.0011 21.105C28.0011 19.1156 29.6139 17.5028 31.6034 17.5028C31.9854 17.5028 32.295 17.8125 32.295 18.1944V26.895C32.295 28.8844 30.6823 30.4971 28.6928 30.4971C28.3109 30.4971 28.0011 30.1875 28.0011 29.8055V21.105Z" fill="white"/>
<path d="M15.7978 21.105C15.7978 19.1156 17.4105 17.5028 19.4 17.5028C19.7819 17.5028 20.0916 17.8125 20.0916 18.1944V26.895C20.0916 28.8844 18.4788 30.4971 16.4894 30.4971C16.1074 30.4971 15.7978 30.1875 15.7978 29.8055V21.105Z" fill="white"/>
</g>
</svg>
