<svg width="48" height="48" viewBox="0 0 48 48" fill="none" xmlns="http://www.w3.org/2000/svg">
<path d="M41.176 24.088C41.176 14.6506 33.5254 7 24.088 7C14.6506 7 7 14.6506 7 24.088C7 33.5254 14.6506 41.176 24.088 41.176C33.5254 41.176 41.176 33.5254 41.176 24.088Z" fill="#F54900"/>
<path fill-rule="evenodd" clip-rule="evenodd" d="M24.0001 48C30.967 47.9386 37.9334 46.4812 42.148 42.1478C46.4812 37.9334 47.9387 30.9668 48 24C47.9387 17.0334 46.4812 10.0666 42.148 5.85212C37.9334 1.51883 30.967 0.0614604 24.0001 0C17.0332 0.0614604 10.0666 1.51883 5.85214 5.85212C1.51883 10.0666 0.0614606 17.0334 0 24C0.0614606 30.9668 1.51883 37.9334 5.85214 42.1478C10.0666 46.4812 17.0334 47.9386 24.0001 48ZM23.2276 12C22.8559 18.0304 18.0305 22.8558 12 23.2274V24.7734C18.0302 25.145 22.8555 29.97 23.2276 36H24.7738C25.1457 29.9704 29.9705 25.1456 36.0001 24.7736V23.2274C29.9701 22.8552 25.1453 18.03 24.7736 12H23.2276Z" fill="#F54900"/>
<path d="M34.1107 14.1736C28.6194 19.699 28.6298 28.6298 34.1421 34.1421C28.6298 28.6298 19.6989 28.6192 14.1735 34.1106C19.6648 28.5853 19.6544 19.6544 14.1421 14.1421C19.6544 19.6544 28.5853 19.665 34.1107 14.1736Z" fill="white"/>
</svg>
